<svg width="80" height="61" viewBox="0 0 80 61" fill="none" xmlns="http://www.w3.org/2000/svg">
<path d="M72.8763 19.7407L74.1122 18.5045C75.1652 17.4516 75.1652 15.7444 74.1122 14.6916C73.0589 13.6389 71.3523 13.6389 70.2993 14.6916L69.0326 15.9586L66.5997 6.2271C65.7264 2.73528 62.223 0 58.6241 0H20.9115C17.3126 0 13.8093 2.73528 12.936 6.22736L10.5033 15.9586L9.23661 14.6916C8.18336 13.6389 6.47668 13.6389 5.4237 14.6916C4.37072 15.7446 4.37072 17.4518 5.4237 18.5045L6.65959 19.7407C2.71975 21.6721 0 25.7233 0 30.3988V39.8689C0 43.6909 1.81861 47.0941 4.6337 49.2651V53.9901C4.6337 57.8555 7.77818 61 11.6438 61H16.9184C20.7838 61 23.9282 57.8555 23.9282 53.9901V51.7321H55.6074V53.9901C55.6074 57.8555 58.7518 61 62.6172 61H67.8918C71.7572 61 74.9019 57.8555 74.9019 53.9901V49.2656C77.717 47.0946 79.5359 43.6914 79.5359 39.8689V30.3988C79.5359 25.7233 76.8161 21.6721 72.8763 19.7407ZM15.6257 17.7006L18.1671 7.53529C18.4424 6.43357 19.7763 5.3921 20.9115 5.3921H58.6238C59.759 5.3921 61.0929 6.43357 61.3682 7.53529L63.9099 17.7009C63.9801 17.9829 63.9661 18.2228 63.8721 18.3433C63.7776 18.4638 63.5481 18.5359 63.2578 18.5359H16.2775C15.9872 18.5359 15.7577 18.4638 15.6632 18.3433C15.5695 18.2228 15.5556 17.9829 15.6257 17.7006ZM5.39237 30.3988C5.39237 26.8312 8.2953 23.9282 11.8629 23.9282H67.673C71.2406 23.9282 74.1435 26.8312 74.1435 30.3988V39.8689C74.1435 43.4368 71.2406 46.3397 67.673 46.3397H11.8629C8.2953 46.3397 5.39237 43.4368 5.39237 39.8689V30.3988ZM18.5359 53.9901C18.5359 54.8666 17.7949 55.6076 16.9184 55.6076H11.6436C10.7668 55.6076 10.0258 54.8666 10.0258 53.9901V51.5893C10.6249 51.6828 11.2379 51.7321 11.8626 51.7321H18.5356V53.9901H18.5359ZM69.5095 53.9901C69.5095 54.8666 68.7685 55.6076 67.8918 55.6076H62.6172C61.7407 55.6076 60.9997 54.8666 60.9997 53.9901V51.7321H67.6733C68.2978 51.7321 68.9108 51.6825 69.5098 51.5893V53.9901H69.5095Z" fill="black"/>
<path d="M30.4994 37.8301H49.0361C50.525 37.8301 51.732 36.6229 51.732 35.1339C51.732 33.645 50.5247 32.438 49.0361 32.438H30.4994C29.0104 32.438 27.8035 33.6452 27.8035 35.1339C27.8032 36.6229 29.0104 37.8301 30.4994 37.8301Z" fill="black"/>
<path d="M16.5977 42.464C20.6396 42.464 23.9279 39.1757 23.9279 35.1338C23.9279 31.092 20.6396 27.804 16.5977 27.804C12.5558 27.804 9.26782 31.092 9.26782 35.1338C9.26755 39.1754 12.5558 42.464 16.5977 42.464ZM16.5977 33.1958C17.6662 33.1958 18.5355 34.0653 18.5355 35.1336C18.5355 36.2021 17.6662 37.0714 16.5977 37.0714C15.5295 37.0714 14.6599 36.2021 14.6599 35.1336C14.6597 34.0653 15.5292 33.1958 16.5977 33.1958Z" fill="black"/>
<path d="M62.9378 42.464C66.9797 42.464 70.2677 39.1757 70.2677 35.1338C70.2677 31.092 66.9797 27.804 62.9378 27.804C58.896 27.804 55.6077 31.092 55.6077 35.1338C55.6074 39.1754 58.896 42.464 62.9378 42.464ZM62.9378 33.1958C64.0061 33.1958 64.8756 34.0653 64.8756 35.1336C64.8756 36.2021 64.0061 37.0714 62.9378 37.0714C61.8693 37.0714 61 36.2021 61 35.1336C60.9998 34.0653 61.869 33.1958 62.9378 33.1958Z" fill="black"/>
</svg>
