<svg width="88" height="66" viewBox="0 0 88 66" fill="none" xmlns="http://www.w3.org/2000/svg">
<path d="M36.2382 37.3694C35.9082 36.8679 35.4139 36.5319 34.8215 36.403L34.289 36.3428C33.9105 36.3428 33.5498 36.4367 33.189 36.6347C32.6345 36.9573 32.2562 37.5073 32.1404 38.1468C31.7929 39.7454 31.1562 40.9056 30.2587 41.5891C29.4638 42.1861 28.3638 42.4867 27.0012 42.4867C25.2045 42.4867 23.8215 41.8853 22.7727 40.6562C21.5905 39.2644 20.9891 37.1934 20.9891 34.4947C20.9891 31.865 21.5948 29.8028 22.7682 28.389C23.8595 27.1174 25.2439 26.4985 27.001 26.4985C28.3591 26.4985 29.4767 26.7991 30.323 27.396C31.2295 28.0237 31.7925 28.9684 32.0419 30.237C32.1885 31.1257 32.6653 31.6127 33.0084 31.8356C33.3604 32.085 33.7696 32.2183 34.1905 32.2183L34.6848 32.1582C35.2613 32.0246 35.7291 31.7108 36.0562 31.2297C36.3921 30.7266 36.5198 30.1562 36.4258 29.524C36.0298 27.4223 35.0984 25.7122 33.6376 24.4362C31.9656 23.0048 29.7362 22.2788 27.0039 22.2788C23.9064 22.2788 21.3661 23.4345 19.4624 25.7124C17.563 27.9548 16.6008 30.9073 16.6008 34.4948C16.6008 38.1601 17.563 41.133 19.4579 43.3256C21.3573 45.5725 23.8961 46.712 27.0039 46.712C29.7319 46.712 31.9671 45.9259 33.6376 44.3874C35.0382 43.1202 36.0091 41.388 36.5299 39.2307C36.7281 38.3579 36.4744 37.7317 36.2382 37.3694Z" fill="#fd811e"/>
<path d="M57.6419 26.1376C55.6926 23.5768 52.9206 22.2788 49.4065 22.2788C45.8748 22.2788 43.094 23.5768 41.1345 26.1508C39.4932 28.3508 38.6631 31.161 38.6631 34.4947C38.6631 37.8283 39.4917 40.6311 41.1388 42.818C43.0939 45.4008 45.8746 46.7105 49.4063 46.7105C52.9205 46.7105 55.6925 45.3993 57.6388 42.8268C59.3225 40.64 60.1775 37.8387 60.1775 34.4947C60.1775 31.1507 59.3269 28.3376 57.6419 26.1376ZM54.2229 40.2526C53.1229 41.7736 51.5463 42.5128 49.4065 42.5128C47.2534 42.5128 45.6768 41.7736 44.5943 40.2614C43.5765 38.8343 43.0559 36.897 43.0559 34.4945C43.0559 32.076 43.5722 30.1369 44.5943 28.7231C45.6768 27.2109 47.2534 26.4717 49.4065 26.4717C51.5463 26.4717 53.1229 27.2109 54.2274 28.7319C55.2629 30.1545 55.7865 32.092 55.7865 34.4943C55.7865 36.8765 55.2585 38.8139 54.2229 40.2526Z" fill="#fd811e"/>
<path d="M73.3891 50.3477C72.9666 49.9268 72.3991 49.6951 71.7846 49.6951H66.4225C66.77 49.2875 67.4668 48.6641 68.8981 47.7694L69.2501 47.5201C70.7755 46.5491 71.742 45.8056 72.2787 45.1822C73.2247 44.1087 73.7014 42.7241 73.7014 41.0741C73.7014 39.5107 73.1689 38.1613 72.1203 37.0701C69.7912 34.6633 65.3017 34.6808 63.0327 37.0833C62.0017 38.1658 61.4766 39.5107 61.4766 41.0756V41.6124C61.4766 42.4293 61.8124 42.9705 62.1469 43.3401C63.0152 44.1996 64.5873 44.1437 65.3353 43.3957C65.8164 42.9571 66.0833 42.3471 66.0833 41.6768V41.0754C66.0833 40.5562 66.2593 40.307 66.4266 40.1294C66.6026 39.9402 66.8944 39.7217 67.578 39.7217C68.2746 39.7217 68.5841 39.9491 68.7689 40.1427C68.9229 40.3054 69.1004 40.5548 69.1004 41.0754C69.1004 41.6811 68.9377 42.1447 68.6018 42.523C68.3906 42.7547 67.7937 43.2914 66.1701 44.2976C64.5201 45.2905 63.2735 46.4111 62.458 47.6357C61.534 49.032 61.0704 50.6731 61.0866 52.5168L61.0998 54.1536H71.786C72.4298 54.1536 73.0238 53.8911 73.3891 53.4833C73.8055 53.0623 74.0329 52.5123 74.0329 51.9242C74.0329 51.3231 73.8055 50.7644 73.3891 50.3477Z" fill="#fd811e"/>
<path d="M73.326 23.3494C69.1108 9.53923 56.3185 0 41.8 0C27.9034 0 15.5466 8.69739 10.8065 21.7214C4.026 26.2372 0 33.6835 0 41.8C0 55.1423 10.8577 66 24.2 66C26.8898 66 29.5974 65.5234 32.2475 64.5729C39.8449 66.8888 47.9863 66.3608 55.2009 63.1297C58.5185 65.0115 62.2277 66 66 66C78.1308 66 88 56.1308 88 44C88 34.6075 82.1525 26.4514 73.326 23.3494ZM66 61.6C62.6663 61.6 59.3868 60.6291 56.5209 58.7855L55.4766 58.1152L54.3591 58.6608C47.6565 61.9608 39.9814 62.4975 32.8754 60.1597L32.1229 59.9103L31.3882 60.1978C29.0122 61.1263 26.5922 61.5984 24.2 61.5984C13.2822 61.6 4.4 52.7178 4.4 41.8C4.4 34.9551 7.91123 28.6865 13.7925 25.0286L14.4628 24.6122L14.7165 23.8642C18.6486 12.2203 29.5328 4.4 41.8 4.4C54.7331 4.4 66.0865 13.1355 69.4071 25.6432L69.7254 26.8415L70.9163 27.1891C78.5034 29.4126 83.6 36.1665 83.6 44C83.6 53.7065 75.7065 61.6 66 61.6Z" fill="#fd811e"/>
</svg>
