<svg width="256" height="256" viewBox="0 0 256 256" fill="none" xmlns="http://www.w3.org/2000/svg">
<circle cx="128.472" cy="128.095" r="42.3238" transform="rotate(-60 128.472 128.095)" fill="white"/>
<path d="M173.891 210.646L131.571 187.089L158.419 182.009L174.65 162.217L173.891 210.646Z" fill="#FFE169"/>
<path d="M174.806 46.996L175.565 95.4243L157.742 74.7134L132.487 70.5528L174.806 46.996Z" fill="#FFE169"/>
<path d="M81.2657 45.901L123.585 69.4578L96.7373 74.5381L80.5066 94.3293L81.2657 45.901Z" fill="#FFE169"/>
<path d="M33.3101 128.963L74.8707 104.091L65.8464 129.882L74.8707 153.834L33.3101 128.963Z" fill="#FFE169"/>
<path d="M222.179 127.258L180.619 152.129L189.643 126.338L180.619 102.386L222.179 127.258Z" fill="#FFE169"/>
<path d="M81.3996 208.781L80.6406 160.353L98.4643 181.064L123.719 185.225L81.3996 208.781Z" fill="#FFE169"/>
</svg>
