<svg width="66" height="66" viewBox="0 0 66 66" fill="none" xmlns="http://www.w3.org/2000/svg">
<path d="M16.5 8.25C26.0975 8.25 34.0533 15.2735 35.5107 24.4613C38.742 21.241 43.2025 19.25 48.125 19.25H60.5V26.125C60.5 35.9975 52.4975 44 42.625 44H35.75V57.75H30.25V35.75H24.75C14.1185 35.75 5.5 27.1315 5.5 16.5V8.25H16.5ZM55 24.75H48.125C41.2913 24.75 35.75 30.2913 35.75 37.125V38.5H42.625C49.4587 38.5 55 32.9587 55 26.125V24.75ZM16.5 13.75H11V16.5C11 24.0927 17.1573 30.25 24.75 30.25H30.25V27.5C30.25 19.9073 24.0928 13.75 16.5 13.75Z" fill="black"/>
</svg>
